#!OML:ASF F:\VICON\USERDATA\INSTALL\rory3\rory3.ASF
:FULLY-SPECIFIED
:DEGREES
1
root 0.377893 17.1514 -33.0965 1.26297 -8.6254 -4.39501
lowerback 19.8414 1.72481 1.54408
upperback -0.602317 3.05884 3.44246
thorax -11.9774 1.46109 2.03855
lowerneck -18.0707 -2.43622 -3.96807
upperneck 12.4211 -2.93608 3.91808
head 6.86752 -1.25023 1.59246
rclavicle 2.49475e-014 1.11319e-014
rhumerus -46.3403 13.178 -99.3044
rradius 102.686
rwrist -14.9963
rhand -17.2159 36.938
rfingers 7.12502
rthumb 9.02699 7.15114
lclavicle 2.49475e-014 1.11319e-014
lhumerus -50.1287 -14.0446 99.9182
lradius 103.974
lwrist 29.0848
lhand -20.7999 4.88658
lfingers 7.12502
lthumb 5.56754 34.7934
rfemur -21.2507 10.0937 35.6818
rtibia 51.488
rfoot -19.8098 -9.71319
rtoes 4.08249
lfemur -12.075 10.1596 -11.3855
ltibia 100.84
lfoot 16.8623 -15.319
ltoes 8.80573
2
root 0.416679 17.0675 -32.6176 3.1364 -3.2799 -4.63013
lowerback 17.3341 -0.122105 3.85094
upperback -0.914949 0.991525 3.28144
thorax -10.7827 0.360367 1.14728
lowerneck -19.5193 -2.48329 -3.45386
upperneck 12.223 -3.03372 3.65024
head 7.03497 -1.28095 1.40121
rclavicle -4.67144e-015 -1.35174e-014
rhumerus -43.8188 13.4628 -99.1581
rradius 103.061
rwrist -14.4571
rhand -17.0677 36.383
rfingers 7.12502
rthumb 9.17 6.60233
lclavicle -4.67144e-015 -1.35174e-014
lhumerus -50.4264 -13.7684 99.6582
lradius 102.929
lwrist 27.3401
lhand -20.687 4.71769
lfingers 7.12502
lthumb 5.67651 34.6217
rfemur -22.3793 6.62634 35.8925
rtibia 52.067
rfoot -21.9537 -11.4255
rtoes 7.51019
lfemur -19.1559 5.4675 -11.2732
ltibia 104.122
lfoot 15.8921 -14.1195
ltoes 9.99278
3
root 0.41981 16.9954 -32.1969 3.10314 -3.24764 -4.46282
lowerback 17.507 0.0930991 3.9046
upperback -0.300458 1.23873 3.03128
thorax -10.1842 0.476117 0.768689
lowerneck -21.744 -3.00808 -3.19945
upperneck 12.8394 -3.7573 3.59962
head 7.62624 -1.5899 1.23696
rclavicle -7.05686e-015 -3.89618e-014
rhumerus -41.0719 14.2753 -99.2396
rradius 104.038
rwrist -15.3466
rhand -17.9354 36.7295
rfingers 7.12502
rthumb 8.33268 6.91383
lclavicle -7.05686e-015 -3.89618e-014
lhumerus -49.9575 -13.8271 99.052
lradius 102.162
lwrist 25.7589
lhand -20.6465 4.97197
lfingers 7.12502
lthumb 5.71561 34.8749
rfemur -20.6707 6.48204 35.8401
rtibia 52.1651
rfoot -23.3896 -12.0926
rtoes 5.23745
lfemur -22.159 5.92082 -11.2507
ltibia 105.795
lfoot 13.5513 -13.0295
ltoes 8.78184
4
root 0.420708 16.9434 -31.7632 3.2999 -3.1798 -4.11166
lowerback 17.1989 0.102064 3.4589
upperback -0.420128 1.15228 3.07762
thorax -10.152 0.459905 1.09541
lowerneck -20.5768 -2.94385 -3.63438
upperneck 12.1594 -3.58254 3.72882
head 7.21334 -1.5332 1.3823
rclavicle -1.59028e-015 -8.74653e-015
rhumerus -39.9383 15.6403 -99.3497
rradius 104.868
rwrist -15.7302
rhand -18.413 38.2903
rfingers 7.12502
rthumb 7.87173 8.45689
lclavicle -1.59028e-015 -8.74653e-015
lhumerus -51.3953 -12.6503 99.1323
lradius 102.129
lwrist 24.6277
lhand -20.7897 5.50444
lfingers 7.12502
lthumb 5.57743 35.411
rfemur -19.0925 6.36273 35.5524
rtibia 52.0469
rfoot -24.7482 -12.6025
rtoes 1.38289
lfemur -25.318 6.21933 -11.6417
ltibia 107.031
lfoot 11.0854 -11.6612
ltoes 8.02767
5
root 0.422247 16.9226 -31.3166 3.60453 -3.05484 -3.93351
lowerback 16.7597 0.0711449 3.22008
upperback -0.851971 1.06679 3.13954
thorax -10.3876 0.430941 1.32559
lowerneck -18.3115 -2.66487 -4.02339
upperneck 10.9294 -3.19558 4.03287
head 6.43806 -1.36937 1.60718
rclavicle -6.95746e-016 1.03368e-014
rhumerus -39.6273 16.559 -99.5765
rradius 106.089
rwrist -15.6013
rhand -17.7832 38.089
rfingers 7.12502
rthumb 8.47952 8.27926
lclavicle -6.95746e-016 1.03368e-014
lhumerus -53.5356 -11.5496 99.3732
lradius 102.5
lwrist 24.3399
lhand -20.9098 5.79746
lfingers 7.12502
lthumb 5.46143 35.7071
rfemur -17.3374 6.26185 35.4076
rtibia 51.4876
rfoot -25.651 -12.8725
rtoes -2.05915
lfemur -28.4758 6.37743 -11.9661
ltibia 107.624
lfoot 9.58196 -11.1134
ltoes 6.86001
6
root 0.426463 16.9268 -30.8578 3.80064 -2.84028 -3.8214
lowerback 16.7997 0.497571 3.60885
upperback -0.47255 1.64467 2.66618
thorax -9.96151 0.675906 0.438978
lowerneck -21.0584 -3.11355 -3.24888
upperneck 11.7656 -3.94634 4.03627
head 7.17617 -1.65543 1.37338
rclavicle 2.08724e-015 3.4191e-014
rhumerus -37.0072 15.854 -99.2557
rradius 107.345
rwrist -15.8165
rhand -17.7505 37.4868
rfingers 7.12502
rthumb 8.51113 7.67831
lclavicle 2.08724e-015 3.4191e-014
lhumerus -53.6359 -13.0318 99.147
lradius 102.821
lwrist 24.9849
lhand -20.8714 5.80886
lfingers 7.12502
lthumb 5.4985 35.7175
rfemur -15.2792 5.94872 35.3113
rtibia 50.5652
rfoot -26.1203 -12.8782
rtoes -4.97176
lfemur -31.4028 6.28299 -12.352
ltibia 107.67
lfoot 8.42923 -10.6913
ltoes 1.38757
7
root 0.434012 16.9264 -30.4001 4.06327 -2.23688 -3.8953
lowerback 16.9616 0.706837 4.08386
upperback -0.285297 1.9902 2.40548
thorax -9.81443 0.811881 -0.20163
lowerneck -23.661 -3.5094 -2.65185
upperneck 12.9177 -4.60622 3.85964
head 7.9908 -1.91192 1.10466
rclavicle 1.70955e-014 2.26615e-014
rhumerus -34.9068 15.4021 -98.9529
rradius 108.611
rwrist -16.0929
rhand -18.0995 38.0984
rfingers 7.12502
rthumb 8.17426 8.27656
lclavicle 1.70955e-014 2.26615e-014
lhumerus -53.9853 -14.0393 99.0999
lradius 103.382
lwrist 26.2339
lhand -20.6266 5.74665
lfingers 7.12502
lthumb 5.73485 35.649
rfemur -13.3111 5.26968 35.4333
rtibia 49.4556
rfoot -25.9213 -13.2657
rtoes -9.04827
lfemur -34.4842 5.68898 -12.5832
ltibia 107.355
lfoot 7.60527 -10.5433
ltoes 3.00779
